<svg width="212" height="81" viewBox="0 0 212 81" fill="none" xmlns="http://www.w3.org/2000/svg">
<path d="M24.2806 67.0356C25.4295 65.2873 27.028 64.6879 29.6255 65.3872C31.9233 65.9866 35.0702 67.7849 35.8695 68.5842C37.0184 69.733 37.418 70.8819 37.2182 72.7302C37.0683 74.1788 36.6687 75.5275 35.9694 76.8262C34.9204 78.8742 33.5217 80.0731 31.6236 80.123C29.7254 80.173 25.7792 79.7234 23.5313 78.7244C21.2835 77.7254 21.0337 75.3277 21.783 72.7302C22.3325 70.6322 23.1817 68.734 24.2806 67.0356Z" fill="white"/>
<path d="M85.1221 78.9241C76.0308 78.9241 72.8339 71.3813 72.8339 64.8876C72.8339 58.3938 76.0808 50.8511 85.1221 50.8511C94.1634 50.8511 97.4103 58.3938 97.4103 64.8876C97.4103 71.3813 94.2134 78.9241 85.1221 78.9241ZM85.1221 49.3525C75.0818 49.3525 70.5361 57.3948 70.5361 64.8376C70.5361 72.2805 75.0818 80.3227 85.1221 80.3227C95.1624 80.3227 99.7081 72.2805 99.7081 64.8376C99.7081 57.3948 95.1624 49.3525 85.1221 49.3525Z" fill="white"/>
<path d="M112.995 57.6946H109.748V51.7004C109.748 50.3517 109.049 50.3517 108.749 50.3517C108.449 50.3517 107.75 50.3517 107.75 51.7004V57.6946H104.503C104.004 57.6946 103.754 57.8944 103.754 58.294C103.754 58.6937 104.004 58.8935 104.503 58.8935H107.75V79.0241C107.75 80.3228 108.449 80.3228 108.749 80.3228C109.049 80.3228 109.748 80.3228 109.748 79.0241V58.8935H112.995C113.495 58.8935 113.744 58.6937 113.744 58.294C113.744 57.8944 113.495 57.6946 112.995 57.6946Z" fill="white"/>
<path d="M129.529 70.2327L123.185 67.9349C120.188 66.8359 118.939 65.2375 118.939 62.9397C118.939 59.5429 123.235 57.395 127.281 57.395C129.879 57.3451 132.476 57.9944 134.774 59.2432C135.873 59.8926 134.974 61.1414 133.975 60.5919C132.226 59.6928 130.928 58.5939 127.381 58.5939C124.334 58.5939 121.137 59.9925 121.137 62.6899C121.137 64.2384 122.386 65.4373 124.284 66.0867C124.884 66.2865 129.129 67.785 129.879 68.0348C133.825 69.4334 136.123 70.9819 136.123 74.1289C136.123 77.8254 132.426 80.273 126.932 80.273C122.286 80.273 119.239 78.225 117.94 76.9262C116.891 75.8772 118.19 74.7783 119.039 75.6774C121.087 77.8753 123.984 79.1241 127.031 79.1241C130.878 79.1241 133.825 77.0261 133.825 74.2788C133.875 71.6813 131.577 70.932 129.529 70.2327Z" fill="white"/>
<path d="M160.999 57.4448C160.7 57.4448 160 57.4448 160 58.7436V72.1807C160 73.9789 159.85 75.5275 159.051 76.6763C157.902 78.2748 155.604 79.1739 152.507 79.1739C149.41 79.1739 147.263 78.2748 146.064 76.6264C145.264 75.4775 145.015 73.9789 145.015 72.1807V58.6936C145.015 57.3949 144.315 57.3949 144.016 57.3949C143.716 57.3949 143.017 57.3949 143.017 58.6936V72.93C143.017 77.4256 146.763 80.3228 152.507 80.3228C158.252 80.3228 161.998 77.4256 161.998 72.93V58.6936C161.998 57.4448 161.299 57.4448 160.999 57.4448Z" fill="white"/>
<path d="M185.575 79.9231C186.624 80.7223 187.024 80.2228 187.174 79.9731C187.324 79.7233 187.773 79.2238 186.774 78.4246L173.887 68.0845L186.475 58.6935C187.124 58.194 186.924 57.7944 186.824 57.6445C186.724 57.4947 186.425 57.195 185.725 57.6945L171.589 68.0845V48.2536C171.589 46.9548 170.89 46.9548 170.59 46.9548C170.29 46.9548 169.591 46.9548 169.591 48.2536V79.0739C169.591 80.3727 170.29 80.3727 170.59 80.3727C170.89 80.3727 171.589 80.3727 171.589 79.0739V68.7339L185.575 79.9231Z" fill="white"/>
<path d="M201.46 79.1738C195.116 79.1738 192.718 73.6291 192.718 68.8837C192.718 63.7886 195.515 58.5936 201.46 58.5936C207.754 58.5936 210.001 64.1383 210.001 68.8837C210.001 73.6291 207.754 79.1738 201.46 79.1738ZM211.001 57.4447C210.701 57.4447 210.001 57.4947 210.001 58.7435V63.439C208.753 59.7925 205.256 57.3448 201.36 57.4447C193.967 57.4447 190.62 63.389 190.62 68.9337C190.62 74.4783 193.467 80.3727 201.51 80.3727C206.455 80.3727 209.002 77.2756 210.051 74.3784V79.024C210.051 80.3227 210.701 80.3227 211.001 80.3227C211.3 80.3227 212 80.3227 212 79.024V58.7435C211.95 57.4947 211.3 57.4447 211.001 57.4447Z" fill="white"/>
<path d="M40.515 0.24976C34.7705 1.2488 20.784 6.09414 12.0424 11.5389C2.00205 17.8328 -1.14492 23.927 0.353635 31.5696C1.65239 38.2132 4.44969 44.707 9.19513 52.3496C14.3901 60.7416 22.2326 65.5869 32.0731 61.1412C41.9136 56.6954 55.9501 46.3554 61.0452 40.1114C67.0395 32.7685 67.0395 25.975 64.7916 19.2315C63.0433 13.8866 60.3959 9.99039 56.6994 5.89433C53.3526 2.19789 48.5573 0.0499519 43.5121 0C42.5131 0 41.514 0.0999039 40.515 0.24976Z" fill="white"/>
</svg>
