<svg width="214" height="92" viewBox="0 0 214 92" fill="none" xmlns="http://www.w3.org/2000/svg">
<g clip-path="url(#clip0_50_52107)">
<path d="M11.0704 90.2876C4.1727 90.2876 1.72443 84.5608 1.72443 79.643C1.72443 74.7252 4.1727 68.9983 11.0704 68.9983C17.9682 68.9983 20.4164 74.7252 20.4164 79.643C20.3951 84.5395 17.9469 90.2876 11.0704 90.2876ZM11.0704 67.87C3.47016 67.87 0 73.9587 0 79.6217C0 85.2846 3.47016 91.3734 11.0704 91.3734C18.6707 91.3734 22.1409 85.2846 22.1409 79.6217C22.1409 73.9587 18.6707 67.87 11.0704 67.87Z" fill="#426BBA"/>
<path d="M32.2107 74.2143H29.7411V69.6584C29.7411 68.6152 29.2089 68.6152 28.996 68.6152C28.7831 68.6152 28.2509 68.6152 28.2509 69.6584V74.2143H25.7813C25.4194 74.2143 25.2278 74.3633 25.2278 74.6614C25.2278 74.9594 25.4194 75.1085 25.7813 75.1085H28.2509V90.3942C28.2509 91.3948 28.7831 91.3948 28.996 91.3948C29.2089 91.3948 29.7411 91.3948 29.7411 90.3942V75.1085H32.2107C32.5726 75.1085 32.7642 74.9594 32.7642 74.6614C32.7642 74.3633 32.5726 74.2143 32.2107 74.2143Z" fill="#426BBA"/>
<path d="M44.7499 83.7094C43.7919 83.3688 41.003 82.3682 39.9386 81.9637C37.6606 81.1547 36.7239 79.9199 36.7239 78.1955C36.7239 75.5982 40.0024 74.0015 43.0255 74.0015C44.9203 74.0015 46.964 74.3847 48.731 75.3853C49.5613 75.8536 48.8801 76.8117 48.1349 76.4072C46.7937 75.7046 45.8144 74.8956 43.1532 74.8956C40.8327 74.8956 38.4057 75.9601 38.4057 78.0251C38.4057 79.2174 39.3425 80.0902 40.7688 80.6012C41.2159 80.7502 44.4306 81.8998 44.9841 82.0914C48.0072 83.1559 49.7316 84.3481 49.7316 86.7112C49.7316 89.5001 46.9427 91.3948 42.77 91.3948C39.2573 91.3948 36.9581 89.8407 35.9575 88.8614C35.1698 88.0737 36.1491 87.2434 36.809 87.9034C37.5116 88.6059 39.3637 90.5007 42.8765 90.5007C45.7931 90.5007 48.0498 88.9253 48.0498 86.8389C48.0924 84.8377 46.3254 84.2842 44.7499 83.7094Z" fill="#426BBA"/>
<path d="M68.6153 74.0015C68.3811 74.0015 67.8701 74.0015 67.8701 75.0021V85.1996C67.8701 86.5834 67.7637 87.7331 67.125 88.5846C66.2522 89.7981 64.5064 90.4794 62.1646 90.4794C59.8228 90.4794 58.1835 89.7981 57.2894 88.5633C56.6507 87.6905 56.4804 86.5622 56.4804 85.1996V75.0021C56.4804 74.0015 55.9481 74.0015 55.7352 74.0015C55.5011 74.0015 54.9901 74.0015 54.9901 75.0021V85.7957C54.9901 89.202 57.8216 91.3948 62.1859 91.3948C66.5502 91.3948 69.3817 89.202 69.3817 85.7957V75.0021C69.3604 74.0015 68.8494 74.0015 68.6153 74.0015Z" fill="#426BBA"/>
<path d="M87.2223 91.0543C88.01 91.6504 88.3081 91.2672 88.4358 91.0969C88.5848 90.9266 88.9042 90.5221 88.1378 89.9047L78.366 82.049C78.366 82.049 87.9249 74.917 87.9036 74.917C88.4145 74.5338 88.2442 74.2358 88.1591 74.1293C88.0739 74.0016 87.8397 73.7674 87.3288 74.1293L76.6203 82.0064V66.9974C76.6203 65.9968 76.088 65.9968 75.8751 65.9968C75.6622 65.9968 75.13 65.9968 75.13 66.9974V90.3518C75.13 91.3524 75.6622 91.3524 75.8751 91.3524C76.088 91.3524 76.6203 91.3524 76.6203 90.3518V82.496L87.2223 91.033" fill="#426BBA"/>
<path d="M99.2934 90.4794C94.5033 90.4794 92.6724 86.2854 92.6724 82.6875C92.6724 78.8128 94.8013 74.8956 99.2934 74.8956C104.062 74.8956 105.765 79.0896 105.765 82.6875C105.765 86.2854 104.062 90.4794 99.2934 90.4794ZM106.51 74.0015C106.276 74.0015 105.765 74.044 105.765 75.0021V78.5574C104.956 76.2581 102.785 74.0015 99.2295 74.0015C93.6304 74.0015 91.0757 78.5148 91.0757 82.7088C91.0757 86.9028 93.2472 91.3948 99.3146 91.3948C103.062 91.3948 105.02 89.053 105.808 86.8602V90.3942C105.808 91.3948 106.319 91.3948 106.532 91.3948C106.745 91.3948 107.277 91.3948 107.277 90.3942V75.0021C107.256 74.044 106.723 74.0015 106.51 74.0015Z" fill="#426BBA"/>
<path d="M40.8116 51.3282C41.7057 49.987 42.9192 49.5399 44.9204 50.0508C46.6661 50.4979 49.1144 51.8817 49.7105 52.4778C50.5834 53.3507 50.9027 54.2661 50.7324 55.6286C50.6047 56.7782 50.3279 57.6937 49.7957 58.7369C49.008 60.291 47.9009 61.2277 46.4532 61.2703C45.0056 61.3129 41.9825 60.9509 40.2368 60.1845C38.5123 59.4181 38.2995 57.5872 38.8743 55.6073C39.4278 53.7977 40.0239 52.4565 40.7903 51.2856" fill="#B01C2E"/>
<path d="M53.2446 0.191604C48.8377 0.936729 38.1505 4.68364 31.4443 8.85635C23.7376 13.6464 21.3532 18.3088 22.5028 24.1846C23.4821 29.2515 25.6324 34.2758 29.2728 40.109C33.2539 46.5384 39.2575 50.2427 46.7726 46.8365C54.2878 43.4515 65.0388 35.5318 68.9561 30.6992C73.5333 25.0575 73.5333 19.8842 71.8301 14.7109C70.4889 10.6021 68.4451 7.62157 65.6137 4.51333C63.2505 1.91604 59.674 0 55.5651 0C54.8413 0 54.0536 0.0638679 53.2659 0.191604" fill="url(#paint0_radial_50_52107)"/>
<mask id="mask0_50_52107" style="mask-type:luminance" maskUnits="userSpaceOnUse" x="22" y="0" width="51" height="49">
<path d="M53.2446 0.191604C48.8377 0.936729 38.1505 4.68364 31.4443 8.85635C23.7376 13.6464 21.3532 18.3088 22.5028 24.1846C23.4821 29.2515 25.6324 34.2758 29.2728 40.109C33.2539 46.5384 39.2575 50.2427 46.7726 46.8365C54.2878 43.4515 65.0388 35.5318 68.9561 30.6992C73.5333 25.0575 73.5333 19.8842 71.8301 14.7109C70.4889 10.6021 68.4451 7.62157 65.6137 4.51333C63.2505 1.91604 59.674 0 55.5651 0C54.8413 0 54.0536 0.0638679 53.2659 0.191604" fill="white"/>
</mask>
<g mask="url(#mask0_50_52107)">
<path d="M73.5759 0H21.3745V50.2427H73.5759V0Z" fill="url(#paint1_radial_50_52107)"/>
</g>
<path d="M127.161 73.5972H129.418C130.546 73.5972 131.355 74.3636 131.355 75.5345C131.355 76.7054 130.546 77.4931 129.418 77.4931H128.034V79.7711H127.161V73.5972ZM129.269 76.7267C130.014 76.7267 130.461 76.2583 130.461 75.5132C130.461 74.7681 130.014 74.3423 129.269 74.3423H128.012V76.7267H129.269Z" fill="#426BBA"/>
<path d="M135.336 78.0041H133.016L132.398 79.7711H131.504L133.718 73.5972H134.634L136.848 79.7711H135.953L135.336 78.0041ZM134.165 74.4487C134.165 74.4487 134.016 75.0023 133.91 75.3216L133.228 77.2802H135.102L134.421 75.3216C134.314 75.0023 134.186 74.4487 134.186 74.4487H134.165Z" fill="#426BBA"/>
<path d="M138.742 74.3635H136.635V73.6184H141.723V74.3635H139.615V79.771H138.742V74.3635Z" fill="#426BBA"/>
<path d="M142.638 73.5972H143.511V79.7711H142.638V73.5972Z" fill="#426BBA"/>
<path d="M145.214 73.597H148.791V74.3421H146.066V76.2794H148.28V77.0245H146.066V79.0045H148.94V79.7496H145.214V73.5757V73.597Z" fill="#426BBA"/>
<path d="M150.26 73.5972H151.111L153.858 77.5996C154.092 77.9402 154.369 78.4937 154.369 78.4937C154.369 78.4937 154.305 77.9402 154.305 77.5996V73.5972H155.178V79.7711H154.326L151.58 75.7687C151.346 75.428 151.069 74.8745 151.069 74.8745C151.069 74.8745 151.133 75.428 151.133 75.7687V79.7711H150.26V73.5972Z" fill="#426BBA"/>
<path d="M158.222 74.3635H156.114V73.6184H161.203V74.3635H159.095V79.771H158.222V74.3635Z" fill="#426BBA"/>
<path d="M167.462 78.0041H165.141L164.524 79.7711H163.63L165.844 73.5972H166.759L168.973 79.7711H168.079L167.462 78.0041ZM166.291 74.4487C166.291 74.4487 166.142 75.0023 166.035 75.3216L165.354 77.2802H167.227L166.546 75.3216C166.44 75.0023 166.312 74.4487 166.312 74.4487H166.291Z" fill="#426BBA"/>
<path d="M169.952 78.4083C169.952 78.4083 170.612 79.0683 171.528 79.0683C172.103 79.0683 172.592 78.7489 172.592 78.1528C172.592 76.8116 169.612 77.1097 169.612 75.2149C169.612 74.2569 170.442 73.4905 171.613 73.4905C172.784 73.4905 173.359 74.1079 173.359 74.1079L172.976 74.8317C172.976 74.8317 172.401 74.2995 171.613 74.2995C170.953 74.2995 170.485 74.704 170.485 75.1936C170.485 76.471 173.465 76.1304 173.465 78.1315C173.465 79.0896 172.72 79.8773 171.507 79.8773C170.187 79.8773 169.463 79.0683 169.463 79.0683L169.952 78.4083Z" fill="#426BBA"/>
<path d="M174.743 78.4083C174.743 78.4083 175.403 79.0683 176.318 79.0683C176.893 79.0683 177.382 78.7489 177.382 78.1528C177.382 76.8116 174.402 77.1097 174.402 75.2149C174.402 74.2569 175.232 73.4905 176.403 73.4905C177.574 73.4905 178.149 74.1079 178.149 74.1079L177.766 74.8317C177.766 74.8317 177.191 74.2995 176.403 74.2995C175.743 74.2995 175.275 74.704 175.275 75.1936C175.275 76.471 178.255 76.1304 178.255 78.1315C178.255 79.0896 177.531 79.8773 176.297 79.8773C174.977 79.8773 174.253 79.0683 174.253 79.0683L174.743 78.4083Z" fill="#426BBA"/>
<path d="M179.533 73.5972H180.405V79.7711H179.533V73.5972Z" fill="#426BBA"/>
<path d="M182.13 78.4083C182.13 78.4083 182.79 79.0683 183.705 79.0683C184.28 79.0683 184.77 78.7489 184.77 78.1528C184.77 76.8116 181.789 77.1097 181.789 75.2149C181.789 74.2569 182.62 73.4905 183.79 73.4905C184.961 73.4905 185.536 74.1079 185.536 74.1079L185.153 74.8317C185.153 74.8317 184.578 74.2995 183.79 74.2995C183.131 74.2995 182.662 74.704 182.662 75.1936C182.662 76.471 185.643 76.1304 185.643 78.1315C185.643 79.0896 184.898 79.8773 183.684 79.8773C182.364 79.8773 181.64 79.0683 181.64 79.0683L182.13 78.4083Z" fill="#426BBA"/>
<path d="M188.24 74.3635H186.132V73.6184H191.22V74.3635H189.113V79.771H188.24V74.3635Z" fill="#426BBA"/>
<path d="M194.818 78.0041H192.498L191.88 79.7711H190.986L193.2 73.5972H194.116L196.33 79.7711H195.436L194.818 78.0041ZM193.647 74.4487C193.647 74.4487 193.498 75.0023 193.392 75.3216L192.711 77.2802H194.584L193.903 75.3216C193.796 75.0023 193.669 74.4487 193.669 74.4487H193.647Z" fill="#426BBA"/>
<path d="M197.288 73.5972H198.139L200.886 77.5996C201.12 77.9402 201.397 78.4937 201.397 78.4937C201.397 78.4937 201.333 77.9402 201.333 77.5996V73.5972H202.206V79.7711H201.354L198.608 75.7687C198.374 75.428 198.097 74.8745 198.097 74.8745C198.097 74.8745 198.161 75.428 198.161 75.7687V79.7711H197.288V73.5972Z" fill="#426BBA"/>
<path d="M206.655 73.4905C208.145 73.4905 208.891 74.2995 208.891 74.2995L208.465 74.9382C208.465 74.9382 207.741 74.2569 206.676 74.2569C205.293 74.2569 204.399 75.3001 204.399 76.62C204.399 77.9399 205.314 79.0683 206.698 79.0683C207.869 79.0683 208.592 78.2593 208.592 78.2593L209.061 78.8767C209.061 78.8767 208.209 79.856 206.676 79.856C204.824 79.856 203.526 78.4509 203.526 76.6413C203.526 74.8317 204.867 73.4905 206.655 73.4905Z" fill="#426BBA"/>
<path d="M210.274 73.597H213.851V74.3421H211.126V76.2794H213.34V77.0245H211.126V79.0045H214V79.7496H210.274V73.5757V73.597Z" fill="#426BBA"/>
<path d="M127.161 82.7943H132.015V84.1142H128.694V86.4987H131.483V87.8186H128.694V91.2249H127.161V82.7943Z" fill="#426BBA"/>
<path d="M138.316 82.6453C140.807 82.6453 142.681 84.54 142.681 86.9457C142.681 89.3514 140.807 91.3739 138.316 91.3739C135.826 91.3739 133.952 89.4366 133.952 86.9457C133.952 84.4549 135.826 82.6453 138.316 82.6453ZM138.316 89.9688C139.871 89.9688 141.105 88.6914 141.105 86.9457C141.105 85.2 139.871 84.0504 138.316 84.0504C136.762 84.0504 135.528 85.2851 135.528 86.9457C135.528 88.6063 136.762 89.9688 138.316 89.9688Z" fill="#426BBA"/>
<path d="M145.193 82.7942H146.726V88.2017C146.726 89.3301 147.471 89.9687 148.599 89.9687C149.728 89.9687 150.473 89.33 150.473 88.1804V82.7729H152.005V88.1804C152.005 90.0752 150.643 91.3525 148.599 91.3525C146.555 91.3525 145.193 90.0752 145.193 88.1804V82.7729V82.7942Z" fill="#426BBA"/>
<path d="M155.114 82.7943H156.647L159.84 87.6696C160.159 88.1592 160.543 88.9682 160.543 88.9682H160.564C160.564 88.9682 160.479 88.1592 160.479 87.6696V82.7943H161.99V91.2249H160.479L157.285 86.3709C156.966 85.8813 156.583 85.0723 156.583 85.0723H156.562C156.562 85.0723 156.647 85.8813 156.647 86.3709V91.2249H155.114V82.7943Z" fill="#426BBA"/>
<path d="M165.226 82.7943H168.1C170.698 82.7943 172.401 84.3484 172.401 87.0096C172.401 89.6708 170.698 91.2462 168.1 91.2462H165.226V82.8156V82.7943ZM168.015 89.9049C169.718 89.9049 170.825 88.9043 170.825 86.9883C170.825 85.0723 169.718 84.093 168.015 84.093H166.759V89.9049H168.015Z" fill="#426BBA"/>
<path d="M179.256 89.0747H176.297L175.594 91.2462H174.019L176.999 82.8157H178.596L181.577 91.2462H180.001L179.277 89.0747H179.256ZM177.766 84.2633C177.766 84.2633 177.574 85.0936 177.404 85.562L176.659 87.8187H178.873L178.128 85.562C177.979 85.0936 177.787 84.2633 177.787 84.2633H177.766Z" fill="#426BBA"/>
<path d="M184.983 84.1142H182.215V82.7943H189.283V84.1142H186.515V91.2462H184.983V84.1142Z" fill="#426BBA"/>
<path d="M191.476 82.7943H193.009V91.2249H191.476V82.7943Z" fill="#426BBA"/>
<path d="M200.034 82.6453C202.525 82.6453 204.399 84.54 204.399 86.9457C204.399 89.3514 202.525 91.3739 200.034 91.3739C197.543 91.3739 195.67 89.4366 195.67 86.9457C195.67 84.4549 197.543 82.6453 200.034 82.6453ZM200.034 89.9688C201.588 89.9688 202.823 88.6914 202.823 86.9457C202.823 85.2 201.588 84.0504 200.034 84.0504C198.48 84.0504 197.245 85.2851 197.245 86.9457C197.245 88.6063 198.48 89.9688 200.034 89.9688Z" fill="#426BBA"/>
<path d="M207.017 82.7943H208.55L211.743 87.6696C212.063 88.1592 212.446 88.9682 212.446 88.9682H212.467C212.467 88.9682 212.382 88.1592 212.382 87.6696V82.7943H213.894V91.2249H212.382L209.189 86.3709C208.869 85.8813 208.486 85.0723 208.486 85.0723H208.465C208.465 85.0723 208.55 85.8813 208.55 86.3709V91.2249H207.017V82.7943Z" fill="#426BBA"/>
<path d="M118.049 73.5758H117.559V91.2246H118.049V73.5758Z" fill="#B01C2E"/>
</g>
<defs>
<radialGradient id="paint0_radial_50_52107" cx="0" cy="0" r="1" gradientUnits="userSpaceOnUse" gradientTransform="translate(38.3634 2.46956) scale(49.5189 49.5189)">
<stop stop-color="#B4C8E7"/>
<stop offset="0.19" stop-color="#B0C4E5"/>
<stop offset="0.38" stop-color="#A3BADF"/>
<stop offset="0.57" stop-color="#8FA8D5"/>
<stop offset="0.77" stop-color="#7290C7"/>
<stop offset="0.97" stop-color="#4D71B5"/>
<stop offset="1" stop-color="#466BB2"/>
</radialGradient>
<radialGradient id="paint1_radial_50_52107" cx="0" cy="0" r="1" gradientUnits="userSpaceOnUse" gradientTransform="translate(40.6762 48.2926) scale(51.4332 51.4332)">
<stop stop-color="#B4C8E7"/>
<stop offset="0.19" stop-color="#B0C4E5"/>
<stop offset="0.38" stop-color="#A3BADF"/>
<stop offset="0.57" stop-color="#8FA8D5"/>
<stop offset="0.77" stop-color="#7290C7"/>
<stop offset="0.97" stop-color="#4D71B5"/>
<stop offset="1" stop-color="#466BB2"/>
</radialGradient>
<clipPath id="clip0_50_52107">
<rect width="214" height="91.395" fill="white"/>
</clipPath>
</defs>
</svg>
